<svg width="38" height="38" viewBox="0 0 38 38" fill="none" xmlns="http://www.w3.org/2000/svg">
<circle cx="18.9999" cy="18.9999" r="18.6667" fill="white"/>
<path fill-rule="evenodd" clip-rule="evenodd" d="M13.0151 18.7083L15.3134 21.0067C15.3994 21.0868 15.4683 21.1834 15.5162 21.2907C15.564 21.398 15.5897 21.5139 15.5918 21.6314C15.5938 21.7489 15.5722 21.8656 15.5282 21.9745C15.4842 22.0835 15.4187 22.1824 15.3356 22.2655C15.2525 22.3486 15.1536 22.4141 15.0446 22.4581C14.9357 22.5021 14.819 22.5237 14.7015 22.5217C14.584 22.5196 14.4681 22.4939 14.3608 22.4461C14.2535 22.3982 14.1569 22.3293 14.0767 22.2433L10.2851 18.4517L9.66675 17.8333L10.2851 17.215L14.0767 13.4233C14.2426 13.2688 14.462 13.1846 14.6887 13.1886C14.9154 13.1926 15.1317 13.2844 15.292 13.4448C15.4523 13.6051 15.5441 13.8214 15.5481 14.048C15.5521 14.2747 15.468 14.4941 15.3134 14.66L13.0151 16.9583H24.5417C25.5474 16.9583 26.5118 17.3578 27.2229 18.0689C27.9339 18.7799 28.3334 19.7444 28.3334 20.75C28.3334 21.7556 27.9339 22.72 27.2229 23.4311C26.5118 24.1422 25.5474 24.5416 24.5417 24.5416H22.2084C21.9763 24.5416 21.7538 24.4495 21.5897 24.2854C21.4256 24.1213 21.3334 23.8987 21.3334 23.6666C21.3334 23.4346 21.4256 23.212 21.5897 23.0479C21.7538 22.8838 21.9763 22.7916 22.2084 22.7916H24.5417C25.0832 22.7916 25.6025 22.5765 25.9854 22.1937C26.3683 21.8108 26.5834 21.2915 26.5834 20.75C26.5834 20.2085 26.3683 19.6892 25.9854 19.3063C25.6025 18.9234 25.0832 18.7083 24.5417 18.7083H13.0151Z" fill="#FA9852"/>
</svg>
