<svg width="39" height="39" viewBox="0 0 39 39" fill="none" xmlns="http://www.w3.org/2000/svg">
<circle cx="19.5" cy="19.5001" r="19.3333" fill="#FA9852"/>
<path d="M20.5741 29.1666C20.2698 29.1666 20.0149 29.0635 19.8094 28.8572C19.6039 28.651 19.5008 28.3961 19.5 28.0925C19.4993 27.7889 19.6024 27.534 19.8094 27.3278C20.0163 27.1215 20.2712 27.0184 20.5741 27.0184H27.0186V11.9814H20.5741C20.2698 11.9814 20.0149 11.8783 19.8094 11.6721C19.6039 11.4658 19.5008 11.2109 19.5 10.9073C19.4993 10.6037 19.6024 10.3488 19.8094 10.1426C20.0163 9.93636 20.2712 9.83325 20.5741 9.83325H27.0186C27.6093 9.83325 28.1152 10.0438 28.5362 10.4648C28.9573 10.8858 29.1674 11.3914 29.1667 11.9814V27.0184C29.1667 27.6092 28.9565 28.1151 28.5362 28.5361C28.1159 28.9571 27.61 29.1673 27.0186 29.1666H20.5741ZM18.6139 20.574H10.9075C10.6031 20.574 10.3482 20.4709 10.1427 20.2647C9.9372 20.0584 9.83409 19.8035 9.83338 19.4999C9.83266 19.1963 9.93577 18.9414 10.1427 18.7352C10.3496 18.529 10.6046 18.4258 10.9075 18.4258H18.6139L16.6 16.412C16.4031 16.215 16.3047 15.9734 16.3047 15.687C16.3047 15.4005 16.4031 15.1499 16.6 14.9351C16.797 14.7203 17.0476 14.6082 17.3519 14.5989C17.6562 14.5896 17.9158 14.6927 18.1306 14.9083L21.9704 18.7481C22.1852 18.9629 22.2926 19.2135 22.2926 19.4999C22.2926 19.7863 22.1852 20.037 21.9704 20.2518L18.1306 24.0916C17.9158 24.3064 17.6609 24.4095 17.3659 24.4009C17.0708 24.3923 16.8156 24.2803 16.6 24.0647C16.4031 23.8499 16.3093 23.595 16.3186 23.3C16.3279 23.005 16.4307 22.7587 16.6269 22.561L18.6139 20.574Z" fill="white"/>
</svg>
